<svg width="1920" height="444" viewBox="0 0 1920 444" fill="none" xmlns="http://www.w3.org/2000/svg">
<path d="M-3 424.5C73.92 399.833 138.02 399.833 189.3 424.5C240.58 449.167 304.68 449.167 381.6 424.5C458.52 399.833 522.62 399.833 573.9 424.5C625.18 449.167 689.28 449.167 766.2 424.5C843.12 399.833 907.22 399.833 958.5 424.5C1009.78 449.167 1073.88 449.167 1150.8 424.5C1227.72 399.833 1291.82 399.833 1343.1 424.5C1394.38 449.167 1458.48 449.167 1535.4 424.5C1612.32 399.833 1676.42 399.833 1727.7 424.5C1778.98 449.167 1843.08 449.167 1920 424.5M-3 343.5C73.92 318.833 138.02 318.833 189.3 343.5C240.58 368.167 304.68 368.167 381.6 343.5C458.52 318.833 522.62 318.833 573.9 343.5C625.18 368.167 689.28 368.167 766.2 343.5C843.12 318.833 907.22 318.833 958.5 343.5C1009.78 368.167 1073.88 368.167 1150.8 343.5C1227.72 318.833 1291.82 318.833 1343.1 343.5C1394.38 368.167 1458.48 368.167 1535.4 343.5C1612.32 318.833 1676.42 318.833 1727.7 343.5C1778.98 368.167 1843.08 368.167 1920 343.5M-3 262.5C73.92 237.833 138.02 237.833 189.3 262.5C240.58 287.167 304.68 287.167 381.6 262.5C458.52 237.833 522.62 237.833 573.9 262.5C625.18 287.167 689.28 287.167 766.2 262.5C843.12 237.833 907.22 237.833 958.5 262.5C1009.78 287.167 1073.88 287.167 1150.8 262.5C1227.72 237.833 1291.82 237.833 1343.1 262.5C1394.38 287.167 1458.48 287.167 1535.4 262.5C1612.32 237.833 1676.42 237.833 1727.7 262.5C1778.98 287.167 1843.08 287.167 1920 262.5M-3 181.5C73.92 156.833 138.02 156.833 189.3 181.5C240.58 206.167 304.68 206.167 381.6 181.5C458.52 156.833 522.62 156.833 573.9 181.5C625.18 206.167 689.28 206.167 766.2 181.5C843.12 156.833 907.22 156.833 958.5 181.5C1009.78 206.167 1073.88 206.167 1150.8 181.5C1227.72 156.833 1291.82 156.833 1343.1 181.5C1394.38 206.167 1458.48 206.167 1535.4 181.5C1612.32 156.833 1676.42 156.833 1727.7 181.5C1778.98 206.167 1843.08 206.167 1920 181.5M-3 100.5C73.92 75.8333 138.02 75.8333 189.3 100.5C240.58 125.167 304.68 125.167 381.6 100.5C458.52 75.8333 522.62 75.8333 573.9 100.5C625.18 125.167 689.28 125.167 766.2 100.5C843.12 75.8333 907.22 75.8333 958.5 100.5C1009.78 125.167 1073.88 125.167 1150.8 100.5C1227.72 75.8333 1291.82 75.8333 1343.1 100.5C1394.38 125.167 1458.48 125.167 1535.4 100.5C1612.32 75.8333 1676.42 75.8333 1727.7 100.5C1778.98 125.167 1843.08 125.167 1920 100.5M-3 19.5C73.92 -5.16667 138.02 -5.16667 189.3 19.5C240.58 44.1667 304.68 44.1667 381.6 19.5C458.52 -5.16667 522.62 -5.16667 573.9 19.5C625.18 44.1667 689.28 44.1667 766.2 19.5C843.12 -5.16667 907.22 -5.16667 958.5 19.5C1009.78 44.1667 1073.88 44.1667 1150.8 19.5C1227.72 -5.16667 1291.82 -5.16667 1343.1 19.5C1394.38 44.1667 1458.48 44.1667 1535.4 19.5C1612.32 -5.16667 1676.42 -5.16667 1727.7 19.5C1778.98 44.1667 1843.08 44.1667 1920 19.5" stroke="url(#paint0_linear_6_2375)" stroke-width="2"/>
<defs>
<linearGradient id="paint0_linear_6_2375" x1="958.5" y1="1" x2="958.5" y2="443" gradientUnits="userSpaceOnUse">
<stop stop-color="#E37C73"/>
<stop offset="1" stop-color="white" stop-opacity="0"/>
</linearGradient>
</defs>
</svg>
