<svg width="156" height="129" viewBox="0 0 156 129" fill="none" xmlns="http://www.w3.org/2000/svg">
<line y1="-0.5" x2="19.9481" y2="-0.5" transform="matrix(-0.703256 0.710936 -0.703256 -0.710936 14.3931 0)" stroke="white"/>
<line y1="-0.5" x2="19.9481" y2="-0.5" transform="matrix(-0.703256 0.710936 -0.703256 -0.710936 14.3931 28.3636)" stroke="white"/>
<line y1="-0.5" x2="19.9481" y2="-0.5" transform="matrix(-0.703256 0.710936 -0.703256 -0.710936 14.3931 56.7273)" stroke="white"/>
<line y1="-0.5" x2="19.9481" y2="-0.5" transform="matrix(-0.703256 0.710936 -0.703256 -0.710936 14.3931 85.0909)" stroke="white"/>
<line y1="-0.5" x2="19.9481" y2="-0.5" transform="matrix(-0.703256 0.710936 -0.703256 -0.710936 14.3931 113.455)" stroke="white"/>
<line y1="-0.5" x2="19.9481" y2="-0.5" transform="matrix(-0.703256 0.710936 -0.703256 -0.710936 49.4644 0)" stroke="white"/>
<line y1="-0.5" x2="19.9481" y2="-0.5" transform="matrix(-0.703256 0.710936 -0.703256 -0.710936 49.4644 28.3636)" stroke="white"/>
<line y1="-0.5" x2="19.9481" y2="-0.5" transform="matrix(-0.703256 0.710936 -0.703256 -0.710936 49.4644 56.7273)" stroke="white"/>
<line y1="-0.5" x2="19.9481" y2="-0.5" transform="matrix(-0.703256 0.710936 -0.703256 -0.710936 49.4644 85.0909)" stroke="white"/>
<line y1="-0.5" x2="19.9481" y2="-0.5" transform="matrix(-0.703256 0.710936 -0.703256 -0.710936 49.4644 113.455)" stroke="white"/>
<line y1="-0.5" x2="19.9481" y2="-0.5" transform="matrix(-0.703256 0.710936 -0.703256 -0.710936 84.5361 0)" stroke="white"/>
<line y1="-0.5" x2="19.9481" y2="-0.5" transform="matrix(-0.703256 0.710936 -0.703256 -0.710936 84.5361 28.3636)" stroke="white"/>
<line y1="-0.5" x2="19.9481" y2="-0.5" transform="matrix(-0.703256 0.710936 -0.703256 -0.710936 84.5361 56.7273)" stroke="white"/>
<line y1="-0.5" x2="19.9481" y2="-0.5" transform="matrix(-0.703256 0.710936 -0.703256 -0.710936 84.5361 85.0909)" stroke="white"/>
<line y1="-0.5" x2="19.9481" y2="-0.5" transform="matrix(-0.703256 0.710936 -0.703256 -0.710936 84.5361 113.455)" stroke="white"/>
<line y1="-0.5" x2="19.9481" y2="-0.5" transform="matrix(-0.703256 0.710936 -0.703256 -0.710936 119.607 0)" stroke="white"/>
<line y1="-0.5" x2="19.9481" y2="-0.5" transform="matrix(-0.703256 0.710936 -0.703256 -0.710936 119.607 28.3636)" stroke="white"/>
<line y1="-0.5" x2="19.9481" y2="-0.5" transform="matrix(-0.703256 0.710936 -0.703256 -0.710936 119.607 56.7273)" stroke="white"/>
<line y1="-0.5" x2="19.9481" y2="-0.5" transform="matrix(-0.703256 0.710936 -0.703256 -0.710936 119.607 85.0909)" stroke="white"/>
<line y1="-0.5" x2="19.9481" y2="-0.5" transform="matrix(-0.703256 0.710936 -0.703256 -0.710936 119.607 113.455)" stroke="white"/>
<line y1="-0.5" x2="19.9481" y2="-0.5" transform="matrix(-0.703256 0.710936 -0.703256 -0.710936 154.679 0)" stroke="white"/>
<line y1="-0.5" x2="19.9481" y2="-0.5" transform="matrix(-0.703256 0.710936 -0.703256 -0.710936 154.679 28.3636)" stroke="white"/>
<line y1="-0.5" x2="19.9481" y2="-0.5" transform="matrix(-0.703256 0.710936 -0.703256 -0.710936 154.679 56.7273)" stroke="white"/>
<line y1="-0.5" x2="19.9481" y2="-0.5" transform="matrix(-0.703256 0.710936 -0.703256 -0.710936 154.679 85.0909)" stroke="white"/>
<line y1="-0.5" x2="19.9481" y2="-0.5" transform="matrix(-0.703256 0.710936 -0.703256 -0.710936 154.679 113.455)" stroke="white"/>
</svg>
