<svg width="24" height="25" viewBox="0 0 24 25" fill="none" xmlns="http://www.w3.org/2000/svg">
<path d="M24 3.04516C23.1174 3.53095 22.1693 3.85919 21.1726 4.00756C22.201 3.24314 22.9704 2.04004 23.3373 0.622749C22.371 1.33567 21.3135 1.83749 20.2107 2.10639C19.4691 1.12281 18.4868 0.470874 17.4164 0.251804C16.3459 0.0327335 15.2472 0.258785 14.2907 0.894863C13.3343 1.53094 12.5737 2.54146 12.127 3.76952C11.6803 4.99759 11.5725 6.3745 11.8203 7.68647C9.86244 7.56436 7.94711 6.93224 6.19863 5.83113C4.45016 4.73003 2.90761 3.18454 1.6711 1.29498C1.2483 2.20093 1.0052 3.25129 1.0052 4.36994C1.00473 5.37697 1.20437 6.36858 1.58641 7.25678C1.96846 8.14498 2.52109 8.90232 3.19528 9.46159C2.4134 9.43069 1.64877 9.16825 0.965031 8.69614V8.77491C0.964952 10.1873 1.35827 11.5563 2.07823 12.6495C2.7982 13.7426 3.80048 14.4928 4.915 14.7725C4.18968 15.0163 3.42923 15.0523 2.69109 14.8775C3.00555 16.0928 3.61807 17.1556 4.44291 17.917C5.26776 18.6783 6.26363 19.1003 7.29111 19.1237C5.5469 20.8245 3.39282 21.7471 1.17537 21.743C0.782575 21.7431 0.39011 21.7146 0 21.6577C2.25083 23.4553 4.87097 24.4094 7.5469 24.4057C16.6053 24.4057 21.5573 15.0863 21.5573 7.00373C21.5573 6.74114 21.552 6.47592 21.5425 6.21333C22.5057 5.34806 23.3372 4.27658 23.9979 3.0491L24 3.04516Z" fill="white"/>
</svg>
